<svg id="visual" viewBox="0 0 900 600" width="900" height="600" xmlns="http://www.w3.org/2000/svg" xmlns:xlink="http://www.w3.org/1999/xlink" version="1.1"><rect x="0" y="0" width="900" height="600" fill="#edf7ff"></rect><path d="M0 118L21.5 116.5C43 115 86 112 128.8 111.3C171.7 110.7 214.3 112.3 257.2 118.3C300 124.3 343 134.7 385.8 136C428.7 137.3 471.3 129.7 514.2 121.5C557 113.3 600 104.7 642.8 107.8C685.7 111 728.3 126 771.2 126.5C814 127 857 113 878.5 106L900 99L900 0L878.5 0C857 0 814 0 771.2 0C728.3 0 685.7 0 642.8 0C600 0 557 0 514.2 0C471.3 0 428.7 0 385.8 0C343 0 300 0 257.2 0C214.3 0 171.7 0 128.8 0C86 0 43 0 21.5 0L0 0Z" fill="#ee9c94"></path><path d="M0 105L21.5 105.3C43 105.7 86 106.3 128.8 102C171.7 97.7 214.3 88.3 257.2 82.5C300 76.7 343 74.3 385.8 79.8C428.7 85.3 471.3 98.7 514.2 103.8C557 109 600 106 642.8 106.5C685.7 107 728.3 111 771.2 113.3C814 115.7 857 116.3 878.5 116.7L900 117L900 0L878.5 0C857 0 814 0 771.2 0C728.3 0 685.7 0 642.8 0C600 0 557 0 514.2 0C471.3 0 428.7 0 385.8 0C343 0 300 0 257.2 0C214.3 0 171.7 0 128.8 0C86 0 43 0 21.5 0L0 0Z" fill="#f0a9ac"></path><path d="M0 64L21.5 66C43 68 86 72 128.8 72.5C171.7 73 214.3 70 257.2 72.8C300 75.7 343 84.3 385.8 84.7C428.7 85 471.3 77 514.2 71.7C557 66.3 600 63.7 642.8 67.2C685.7 70.7 728.3 80.3 771.2 79.3C814 78.3 857 66.7 878.5 60.8L900 55L900 0L878.5 0C857 0 814 0 771.2 0C728.3 0 685.7 0 642.8 0C600 0 557 0 514.2 0C471.3 0 428.7 0 385.8 0C343 0 300 0 257.2 0C214.3 0 171.7 0 128.8 0C86 0 43 0 21.5 0L0 0Z" fill="#f0b8c1"></path><path d="M0 60L21.5 61C43 62 86 64 128.8 61C171.7 58 214.3 50 257.2 49.2C300 48.3 343 54.7 385.8 53.8C428.7 53 471.3 45 514.2 40.8C557 36.7 600 36.3 642.8 37C685.7 37.7 728.3 39.3 771.2 43.8C814 48.3 857 55.7 878.5 59.3L900 63L900 0L878.5 0C857 0 814 0 771.2 0C728.3 0 685.7 0 642.8 0C600 0 557 0 514.2 0C471.3 0 428.7 0 385.8 0C343 0 300 0 257.2 0C214.3 0 171.7 0 128.8 0C86 0 43 0 21.5 0L0 0Z" fill="#efc7d2"></path><path d="M0 23L21.5 26.3C43 29.7 86 36.3 128.8 36.5C171.7 36.7 214.3 30.3 257.2 25.8C300 21.3 343 18.7 385.8 19.3C428.7 20 471.3 24 514.2 24.8C557 25.7 600 23.3 642.8 23.5C685.7 23.7 728.3 26.3 771.2 28.3C814 30.3 857 31.7 878.5 32.3L900 33L900 0L878.5 0C857 0 814 0 771.2 0C728.3 0 685.7 0 642.8 0C600 0 557 0 514.2 0C471.3 0 428.7 0 385.8 0C343 0 300 0 257.2 0C214.3 0 171.7 0 128.8 0C86 0 43 0 21.5 0L0 0Z" fill="#edd7e0"></path></svg>